<svg width="16" height="16" viewBox="0 0 16 16" fill="none" xmlns="http://www.w3.org/2000/svg">
<title>16 refresh</title>
<path fill-rule="evenodd" clip-rule="evenodd" d="M6.6548 13.0222C7.79274 13.3269 9.00041 13.2363 10.0802 12.7653C11.1599 12.2942 12.0478 11.4706 12.5985 10.4292C12.6382 10.3537 12.6925 10.2867 12.7581 10.2322C12.8238 10.1776 12.8995 10.1365 12.9811 10.1112C13.0626 10.0859 13.1483 10.077 13.2333 10.0848C13.3183 10.0926 13.4009 10.1171 13.4764 10.1569C13.552 10.1967 13.6189 10.2509 13.6735 10.3166C13.728 10.3822 13.7691 10.458 13.7944 10.5395C13.8197 10.621 13.8287 10.7067 13.8208 10.7917C13.813 10.8767 13.7885 10.9593 13.7487 11.0349C12.3645 13.6603 9.30625 15.0777 6.31817 14.2777C2.85114 13.3484 0.794316 9.78518 1.72297 6.31815C2.65228 2.85112 6.21549 0.794297 9.68187 1.72295C11.0553 2.09092 12.2703 2.89906 13.1405 4.02354C14.0107 5.14802 14.4883 6.52682 14.5 7.94866C14.5045 8.53549 13.8534 8.85977 13.3868 8.54654L11.6497 7.37548C10.9946 6.93357 11.4339 5.91264 12.2047 6.08485L12.8922 6.23822C12.5891 5.3971 12.0743 4.64835 11.3974 4.0643C10.7204 3.48025 9.90433 3.08064 9.02789 2.90406C8.15144 2.72749 7.24427 2.77992 6.394 3.05629C5.54374 3.33267 4.77911 3.82364 4.17399 4.48179C3.56886 5.13993 3.14369 5.94301 2.93954 6.81345C2.73539 7.68388 2.75916 8.59226 3.00855 9.45083C3.25795 10.3094 3.72455 11.0891 4.36327 11.7147C5.00199 12.3403 5.79124 12.7906 6.6548 13.0222Z" fill="#353C46"/>
</svg>
