<svg width="200" height="200" viewBox="0 0 200 200" fill="none" xmlns="http://www.w3.org/2000/svg">
<title>200 fail</title>
<g clip-path="url(#clip0_1732_14330)">
<rect x="20.3164" y="2.55762" width="155.908" height="194.885" rx="7.79538" fill="#EFF2F6"/>
<rect x="30.0605" y="12.3018" width="136.419" height="136.419" rx="3.89769" fill="#DEE2E9"/>
<path d="M140.927 95.0899V92.5555H138.405V90.0197H135.883V67.1991H133.36V62.1276H130.838V49.4487H128.316V46.9143H115.706V44.3786H108.14V41.8428H87.9635V44.3786H80.3969V46.9143H67.7873V49.4487H65.2651V62.1276H62.7429V67.1991H60.2207V90.0197H57.6985V92.5555H55.1777V97.6256H57.6985V100.161H65.2651V102.697H67.7873V105.233H70.3095V107.769H72.8317V110.305H75.3539V115.376H77.8761V117.91H80.3969V120.446H90.4857V117.91H93.0079V115.376H103.095V117.91H105.618V120.446H115.706V117.91H118.229V115.376H120.751V110.305H123.273V107.769H125.794V105.233H128.316V102.697H130.838V100.161H138.405V97.6256H140.927V95.0899ZM85.4413 77.3408H90.4857V87.4839H85.4413V77.3408ZM108.14 87.4839H105.618V77.3408H110.662V87.4839H108.14Z" fill="#C9CFD7"/>
<path d="M60.8956 177.994C46.7913 173.351 24.3031 158.868 35.9268 147.336C49.4749 133.894 64.9405 169.6 28.475 166.248C0.0037419 163.631 4.40736 136.249 10.1681 122.886" stroke="#C9CFD7" stroke-width="2.33861" stroke-linecap="round" stroke-dasharray="3.9 3.9"/>
<path d="M187.754 98.001C181.257 112.942 163.36 139.973 147.802 124.31C131.235 107.631 168.681 96.084 162.978 127.794C160.307 142.647 148.791 153.403 132.959 157.166" stroke="#C9CFD7" stroke-width="2.33861" stroke-linecap="round" stroke-dasharray="3.9 3.9"/>
<path d="M72.906 173.763C75.6954 173.504 78.8523 178.697 78.8102 182.287L70.5212 179.575C70.1538 177.746 70.1165 174.022 72.906 173.763Z" fill="#DDE1E8"/>
<path d="M68.1658 188.252C70.2625 190.11 75.8786 187.788 77.9671 184.867L69.6781 182.155C68.3004 183.413 66.0692 186.394 68.1658 188.252Z" fill="#DDE1E8"/>
<path d="M68.6159 178.951L79.5068 182.5147C80.2191 182.7478 80.6076 183.5141 80.3745 184.2264C80.1414 184.9386 79.3751 185.3271 78.6628 185.094L67.7719 181.5303C67.0596 181.2973 66.6711 180.5309 66.9042 179.8187C67.1373 179.1064 67.9036 178.7179 68.6159 178.951Z" fill="#C1C9D4"/>
<path d="M182.68 86.1101C182.153 83.3588 187.016 79.7144 190.593 79.4089L188.696 87.9214C186.911 88.4641 183.208 88.8615 182.68 86.1101Z" fill="#E6EBF1"/>
<path d="M197.56 89.4271C199.206 87.1605 196.352 81.7955 193.242 79.9993L191.345 88.5119C192.73 89.7614 195.914 91.6937 197.56 89.4271Z" fill="#E6EBF1"/>
<path d="M188.2603 89.8797L190.7536 78.695C190.9167 77.9635 191.6418 77.5028 192.3733 77.6658C193.1048 77.8289 193.5656 78.554 193.4025 79.2855L190.9092 90.4702C190.7461 91.2016 190.0209 91.6624 189.2894 91.4994C188.558 91.3363 188.0972 90.6111 188.2603 89.8797Z" fill="#CCD3DD"/>
</g>
<defs>
<clipPath id="clip0_1732_14330">
<rect width="200" height="200" fill="white"/>
</clipPath>
</defs>
</svg>
