<svg width="24" height="24" viewBox="0 0 24 24" fill="none" xmlns="http://www.w3.org/2000/svg">
<title>24 link</title>
<path d="M16.2431 9.87731C16.4153 9.70513 16.6444 9.6017 16.8874 9.58642C17.1305 9.57114 17.3707 9.64506 17.5631 9.79431L17.6571 9.87731L19.7781 11.9993C20.7932 13.0155 21.3705 14.3885 21.3865 15.8248C21.4026 17.2611 20.8561 18.6467 19.864 19.6853C18.8718 20.724 17.5127 21.3333 16.0772 21.383C14.6417 21.4327 13.2437 20.9188 12.1821 19.9513L12.0001 19.7773L9.8791 17.6563C9.69785 17.4768 9.59207 17.2347 9.58342 16.9798C9.57477 16.7248 9.6639 16.4761 9.83257 16.2847C10.0012 16.0933 10.2367 15.9736 10.4907 15.9501C10.7448 15.9266 10.9982 16.0011 11.1991 16.1583L11.2931 16.2413L13.4141 18.3633C14.0578 19.0073 14.9272 19.3751 15.8377 19.3886C16.7481 19.4021 17.628 19.0602 18.2906 18.4356C18.9531 17.8109 19.3461 16.9527 19.3862 16.043C19.4262 15.1333 19.1102 14.2438 18.5051 13.5633L18.3641 13.4133L16.2431 11.2923C16.1501 11.1994 16.0764 11.0891 16.026 10.9678C15.9757 10.8464 15.9498 10.7162 15.9498 10.5848C15.9498 10.4534 15.9757 10.3233 16.026 10.2019C16.0764 10.0805 16.1501 9.97018 16.2431 9.87731ZM9.1701 9.17031C9.3423 8.99813 9.5714 8.8947 9.81442 8.87942C10.0574 8.86414 10.2977 8.93806 10.4901 9.08731L10.5851 9.17031L14.8271 13.4133C15.0065 13.5933 15.1106 13.8347 15.1183 14.0887C15.1261 14.3426 15.0369 14.59 14.8689 14.7806C14.7008 14.9712 14.4666 15.0906 14.2136 15.1147C13.9607 15.1388 13.7081 15.0657 13.5071 14.9103L13.4131 14.8273L9.1701 10.5853C9.07713 10.4924 9.00337 10.3821 8.95304 10.2608C8.90272 10.1394 8.87682 10.0092 8.87682 9.87781C8.87682 9.74639 8.90272 9.61627 8.95304 9.49487C9.00337 9.37347 9.07713 9.26318 9.1701 9.17031ZM4.2201 4.22031C5.2209 3.21954 6.56897 2.6431 7.98392 2.61088C9.39888 2.57865 10.7718 3.09313 11.8171 4.04731L11.9991 4.22131L14.1201 6.34131C14.3014 6.52085 14.4071 6.76288 14.4158 7.01786C14.4244 7.27283 14.3353 7.52148 14.1666 7.71289C13.998 7.9043 13.7625 8.02401 13.5085 8.04751C13.2544 8.07101 13.001 7.99653 12.8001 7.83931L12.7061 7.75631L10.5851 5.63531C9.94138 4.99129 9.07201 4.6235 8.16153 4.61C7.25106 4.59651 6.37117 4.93837 5.70864 5.56303C5.04611 6.18769 4.65311 7.04596 4.61305 7.95565C4.573 8.86535 4.88904 9.75484 5.4941 10.4353L5.63511 10.5853L7.7561 12.7053C7.93736 12.8849 8.04314 13.1269 8.05179 13.3819C8.06044 13.6368 7.97131 13.8855 7.80264 14.0769C7.63397 14.2683 7.39852 14.388 7.14448 14.4115C6.89044 14.435 6.63703 14.3605 6.4361 14.2033L6.3421 14.1203L4.22211 11.9993C3.19071 10.9679 2.61128 9.56896 2.61128 8.11031C2.61128 6.65166 3.19071 5.25275 4.22211 4.22131L4.2201 4.22031Z" fill="#848B96"/>
</svg>
