<svg width="32" height="32" viewBox="0 0 32 32" fill="none" xmlns="http://www.w3.org/2000/svg">
<title>32 edit</title>
<circle cx="16" cy="16" r="13.5" fill="white"/>
<circle cx="16" cy="16" r="13.5" fill="none" stroke="#E4E6E9"/>
<path d="M18.5973 11.1361C18.6724 11.061 18.7943 11.061 18.8695 11.1361L20.8633 13.1299C20.9385 13.2051 20.9385 13.327 20.8633 13.4022L19.7059 14.5596L17.4398 12.2936L18.5973 11.1361Z" stroke="#4E5662"/>
<path d="M19.7062 14.5595L13.8415 20.4242C13.8149 20.4508 13.7811 20.469 13.7443 20.4766L11.2315 20.9952C11.0961 21.0231 10.9763 20.9031 11.004 20.7677L11.5226 18.2549C11.5302 18.2181 11.5484 18.1843 11.575 18.1577L17.4407 12.293L19.7062 14.5595Z" stroke="#4E5662"/>
</svg>
