<svg width="100" height="100" viewBox="0 0 100 100" fill="none" xmlns="http://www.w3.org/2000/svg">
<circle cx="50" cy="50" r="50" fill="#E4E6E9"/>
<path d="M80.7088 59.9352V58.1296H78.9022V56.323H77.0956V40.0648H75.2891V36.4516H73.4825V27.4187H71.6759V25.6132H62.644V23.8066H57.2243V22H42.7726V23.8066H37.3529V25.6132H28.321V27.4187H26.5144V36.4516H24.7078V40.0648H22.9012V56.323H21.0946V58.1296H19.2891V61.7418H21.0946V63.5484H26.5144V65.3549H28.321V67.1615H30.1275V68.9681H31.9341V70.7747H33.7407V74.3878H35.5473V76.1934H37.3529V78H44.5792V76.1934H46.3858V74.3878H53.6111V76.1934H55.4177V78H62.644V76.1934H64.4506V74.3878H66.2572V70.7747H68.0637V68.9681H69.8693V67.1615H71.6759V65.3549H73.4825V63.5484H78.9022V61.7418H80.7088V59.9352ZM40.966 47.2901H44.5792V54.5164H40.966V47.2901ZM57.2243 54.5164H55.4177V47.2901H59.0308V54.5164H57.2243Z" fill="#B5BBC3"/>
</svg>
