<svg width="200" height="200" viewBox="0 0 200 200" fill="none" xmlns="http://www.w3.org/2000/svg">
<path d="M156.541 180.308H153.31V183.539H156.541V180.308Z" fill="#CACED4"/>
<path d="M150.078 180.308H146.847V183.539H150.078V180.308Z" fill="#CACED4"/>
<path d="M150.078 173.846H146.847V177.077H150.078V173.846Z" fill="#CACED4"/>
<path d="M143.616 180.308H140.385V183.539H143.616V180.308Z" fill="#CACED4"/>
<path d="M143.616 173.846H140.385V177.077H143.616V173.846Z" fill="#CACED4"/>
<path d="M137.154 186.771H133.923V190H137.154V186.771Z" fill="#CACED4"/>
<path d="M137.154 180.308H133.923V183.539H137.154V180.308Z" fill="#CACED4"/>
<path d="M137.154 173.846H133.923V177.077H137.154V173.846Z" fill="#CACED4"/>
<path d="M130.693 186.771H127.462V190H130.693V186.771Z" fill="#CACED4"/>
<path d="M130.693 180.308H127.462V183.539H130.693V180.308Z" fill="#CACED4"/>
<path d="M124.231 186.771H121V190H124.231V186.771Z" fill="#CACED4"/>
<path d="M124.231 180.308H121V183.539H124.231V180.308Z" fill="#CACED4"/>
<path d="M117.768 186.771H114.537V190H117.768V186.771Z" fill="#CACED4"/>
<path d="M117.768 180.308H114.537V183.539H117.768V180.308Z" fill="#CACED4"/>
<path d="M111.306 186.771H108.075V190H111.306V186.771Z" fill="#CACED4"/>
<path d="M111.306 180.308H108.075V183.539H111.306V180.308Z" fill="#CACED4"/>
<path d="M104.844 186.771H101.614V190H104.844V186.771Z" fill="#CACED4"/>
<path d="M104.844 180.308H101.614V183.539H104.844V180.308Z" fill="#CACED4"/>
<path d="M98.3835 186.771H95.1523V190H98.3835V186.771Z" fill="#CACED4"/>
<path d="M98.3835 180.308H95.1523V183.539H98.3835V180.308Z" fill="#CACED4"/>
<path d="M91.9216 186.771H88.6904V190H91.9216V186.771Z" fill="#CACED4"/>
<path d="M91.9216 180.308H88.6904V183.539H91.9216V180.308Z" fill="#CACED4"/>
<path d="M85.4587 186.771H82.2275V190H85.4587V186.771Z" fill="#CACED4"/>
<path d="M85.4587 180.308H82.2275V183.539H85.4587V180.308Z" fill="#CACED4"/>
<path d="M78.9968 186.771H75.7656V190H78.9968V186.771Z" fill="#CACED4"/>
<path d="M78.9968 180.308H75.7656V183.539H78.9968V180.308Z" fill="#CACED4"/>
<path d="M72.5358 186.771H69.3047V190H72.5358V186.771Z" fill="#CACED4"/>
<path d="M72.5358 180.308H69.3047V183.539H72.5358V180.308Z" fill="#CACED4"/>
<path d="M66.0739 186.771H62.8428V190H66.0739V186.771Z" fill="#CACED4"/>
<path d="M66.0739 180.308H62.8428V183.539H66.0739V180.308Z" fill="#CACED4"/>
<path d="M66.0739 173.846H62.8428V177.077H66.0739V173.846Z" fill="#CACED4"/>
<path d="M59.612 180.308H56.3809V183.539H59.612V180.308Z" fill="#CACED4"/>
<path d="M59.612 173.846H56.3809V177.077H59.612V173.846Z" fill="#CACED4"/>
<path d="M53.1491 180.308H49.918V183.539H53.1491V180.308Z" fill="#CACED4"/>
<path d="M53.1491 173.846H49.918V177.077H53.1491V173.846Z" fill="#CACED4"/>
<path d="M46.6874 180.308H43.458V183.539H46.6874V180.308Z" fill="#CACED4"/>
<path d="M154.925 140.197V136.968H151.694V133.737H148.462V104.658H145.231V98.1959H142V82.0403H138.769V78.8109H122.615V75.5798H112.922V72.3486H87.0744V75.5798H77.381V78.8109H61.2271V82.0403H57.996V98.1959H54.7649V104.658H51.5337V133.737H48.3026V136.968H45.0732V143.428H48.3026V146.659H57.996V149.891H61.2271V153.122H64.4583V156.353H67.6894V159.584H70.9205V166.046H74.1517V169.276H77.381V172.507H90.3056V169.276H93.5367V166.046H106.459V169.276H109.691V172.507H122.615V169.276H125.846V166.046H129.077V159.584H132.309V156.353H135.538V153.122H138.769V149.891H142V146.659H151.694V143.428H154.925V140.197ZM83.8433 117.581H90.3056V130.505H83.8433V117.581ZM112.922 130.505H109.691V117.581H116.153V130.505H112.922Z" fill="#CACED4"/>
<path d="M133.923 26.1556V29.3868V32.6179V35.8472V39.0784V42.3095H137.154V39.0784V35.8472V32.6179V29.3868V26.1556V22.9245V19.6934H133.923V22.9245V26.1556Z" fill="#CACED4"/>
<path d="M133.923 42.3096H130.693V45.5407H133.923V42.3096Z" fill="#CACED4"/>
<path d="M133.923 16.4619H130.693V19.693H133.923V16.4619Z" fill="#CACED4"/>
<path d="M130.695 45.541H127.464V48.7721H130.695V45.541Z" fill="#CACED4"/>
<path d="M130.695 13.2314H127.464V16.4626H130.695V13.2314Z" fill="#CACED4"/>
<path d="M121 48.7715H117.769H114.538H111.307V52.0026H114.538H117.769H121H124.231H127.464V48.7715H124.231H121Z" fill="#CACED4"/>
<path d="M114.538 29.3867H111.307V32.6179H114.538V29.3867Z" fill="#CACED4"/>
<path d="M111.306 52.0029H108.075V55.2341H111.306V52.0029Z" fill="#CACED4"/>
<path d="M108.075 55.2344H104.844V58.4655H108.075V55.2344Z" fill="#CACED4"/>
<path d="M104.844 58.4658H101.614V61.697H104.844V58.4658Z" fill="#CACED4"/>
<path d="M101.615 61.6963H98.3838V64.9256H101.615V61.6963Z" fill="#CACED4"/>
<path d="M101.615 29.3867H98.3838V32.6179H101.615V29.3867Z" fill="#CACED4"/>
<path d="M98.3835 58.4658H95.1523V61.697H98.3835V58.4658Z" fill="#CACED4"/>
<path d="M95.152 55.2344H91.9209V58.4655H95.152V55.2344Z" fill="#CACED4"/>
<path d="M91.9216 52.0029H88.6904V55.2341H91.9216V52.0029Z" fill="#CACED4"/>
<path d="M85.4589 48.7715H82.2278H78.9966H75.7655H72.5361V52.0026H75.7655H78.9966H82.2278H85.4589H88.69V48.7715H85.4589Z" fill="#CACED4"/>
<path d="M88.6901 29.3867H85.459V32.6179H88.6901V29.3867Z" fill="#CACED4"/>
<path d="M78.9966 13.2311H82.2278H85.4589H88.69H91.9212H95.1523H98.3834H101.615H104.844H108.075H111.306H114.537H117.768H121H124.231H127.464V10H124.231H121H117.768H114.537H111.306H108.075H104.844H101.615H98.3834H95.1523H91.9212H88.69H85.4589H82.2278H78.9966H75.7655H72.5361V13.2311H75.7655H78.9966Z" fill="#CACED4"/>
<path d="M72.5358 45.541H69.3047V48.7721H72.5358V45.541Z" fill="#CACED4"/>
<path d="M72.5358 13.2314H69.3047V16.4626H72.5358V13.2314Z" fill="#CACED4"/>
<path d="M69.3054 42.3096H66.0742V45.5407H69.3054V42.3096Z" fill="#CACED4"/>
<path d="M69.3054 16.4619H66.0742V19.693H69.3054V16.4619Z" fill="#CACED4"/>
<path d="M66.0739 39.0784V35.8472V32.6179V29.3868V26.1556V22.9245V19.6934H62.8428V22.9245V26.1556V29.3868V32.6179V35.8472V39.0784V42.3095H66.0739V39.0784Z" fill="#CACED4"/>
</svg>
